<svg width="550" height="1100" viewBox="0 0 550 1100" fill="none" xmlns="http://www.w3.org/2000/svg">
<g clip-path="url(#clip0_8_10)">
<path opacity="0.05" d="M550.5 1049.03C826.41 1049.03 1050.08 825.16 1050.08 549C1050.08 272.84 826.41 48.9675 550.5 48.9675C274.59 48.9675 50.9213 272.84 50.9213 549C50.9213 825.16 274.59 1049.03 550.5 1049.03Z" stroke="#3C1053" stroke-width="7" stroke-linecap="round" stroke-dasharray="1000 1000"/>
<path opacity="0.1" d="M689.924 1005.45C941.784 928.376 1083.54 661.539 1006.53 409.45C929.532 157.361 662.937 15.4808 411.077 92.5522C159.216 169.624 17.465 436.461 94.4664 688.55C171.468 940.639 438.063 1082.52 689.924 1005.45Z" stroke="#3C1053" stroke-width="7" stroke-linecap="round" stroke-dasharray="1000 1000"/>
<path opacity="0.14" d="M804.464 925.86C1012.41 785.472 1067.28 502.939 927.018 294.805C786.757 86.671 504.481 31.7522 296.536 172.14C88.5906 312.528 33.7216 595.061 173.982 803.195C314.243 1011.33 596.519 1066.25 804.464 925.86Z" stroke="#3C1053" stroke-width="7" stroke-linecap="round" stroke-dasharray="1000 1000"/>
<path opacity="0.19" d="M885.803 820.77C1035.76 635.419 1007.21 363.487 822.023 213.392C636.84 63.2982 365.155 91.8794 215.197 277.23C65.239 462.581 93.7942 734.513 278.977 884.608C464.16 1034.7 735.845 1006.12 885.803 820.77Z" stroke="#3C1053" stroke-width="7" stroke-linecap="round" stroke-dasharray="1000 1000"/>
<path opacity="0.23" d="M932.098 695.615C1013 484.673 907.732 248.029 696.982 167.056C486.231 86.0829 249.802 191.444 168.903 402.385C88.003 613.327 193.268 849.971 404.018 930.944C614.769 1011.92 851.198 906.556 932.098 695.615Z" stroke="#3C1053" stroke-width="7" stroke-linecap="round" stroke-dasharray="1000 1000"/>
<path opacity="0.28" d="M935.598 575.953C950.47 363.076 790.112 178.438 577.429 163.552C364.745 148.667 180.275 309.17 165.402 522.047C150.53 734.924 310.888 919.562 523.571 934.447C736.255 949.333 920.726 788.83 935.598 575.953Z" stroke="#3C1053" stroke-width="7" stroke-linecap="round" stroke-dasharray="1000 1000"/>
<path opacity="0.32" d="M904.518 467.194C859.379 271.498 664.287 149.481 468.769 194.661C273.25 239.841 151.343 435.109 196.482 630.806C241.621 826.502 436.713 948.519 632.231 903.339C827.75 858.159 949.657 662.891 904.518 467.194Z" stroke="#3C1053" stroke-width="7" stroke-linecap="round" stroke-dasharray="1000 1000"/>
<path opacity="0.37" d="M845.487 378.534C751.427 215.47 543.106 159.599 380.189 253.745C217.272 347.891 161.453 556.401 255.513 719.466C349.573 882.531 557.894 938.401 720.811 844.255C883.728 750.11 939.547 541.599 845.487 378.534Z" stroke="#3C1053" stroke-width="7" stroke-linecap="round" stroke-dasharray="881 1000"/>
<path opacity="0.41" d="M767.317 316.281C638.906 196.428 437.737 203.459 317.993 331.986C198.248 460.513 205.273 661.865 333.683 781.719C462.094 901.572 663.263 894.54 783.007 766.014C902.752 637.487 895.727 436.135 767.317 316.281Z" stroke="#3C1053" stroke-width="7" stroke-linecap="round" stroke-dasharray="764 1000"/>
<path opacity="0.46" d="M679.91 283.43C533.372 211.894 356.642 272.802 285.171 419.473C213.7 566.143 274.553 743.034 421.09 814.57C567.628 886.106 744.358 825.197 815.829 678.527C887.3 531.857 826.447 354.966 679.91 283.43Z" stroke="#3C1053" stroke-width="7" stroke-linecap="round" stroke-dasharray="655 1000"/>
<path opacity="0.5" d="M593.128 279.613C444.485 256.049 304.9 357.555 281.357 506.333C257.815 655.112 359.229 794.823 507.872 818.387C656.515 841.951 796.1 740.445 819.643 591.667C843.185 442.888 741.771 303.177 593.128 279.613Z" stroke="#3C1053" stroke-width="7" stroke-linecap="round" stroke-dasharray="554 1000"/>
<path opacity="0.55" d="M511.424 302.062C375.168 323.662 282.205 451.731 303.786 588.111C325.367 724.491 453.319 817.539 589.575 795.938C725.832 774.338 818.795 646.269 797.214 509.889C775.633 373.509 647.681 280.461 511.424 302.062Z" stroke="#3C1053" stroke-width="7" stroke-linecap="round" stroke-dasharray="462 1000"/>
<path opacity="0.59" d="M450.954 344.715C338.233 399.743 291.423 535.813 346.401 648.636C401.378 761.46 537.325 808.312 650.046 753.285C762.767 698.257 809.577 562.187 754.599 449.364C699.621 336.54 563.675 289.688 450.954 344.715Z" stroke="#3C1053" stroke-width="7" stroke-linecap="round" stroke-dasharray="378 1000"/>
<path opacity="0.64" d="M411.118 399.395C328.568 476.444 324.052 605.884 401.031 688.509C478.01 771.133 607.333 775.653 689.882 698.605C772.432 621.556 776.948 492.116 699.969 409.491C622.99 326.867 493.667 322.347 411.118 399.395Z" stroke="#3C1053" stroke-width="7" stroke-linecap="round" stroke-dasharray="302 933"/>
<path opacity="0.68" d="M393.174 458.085C343.008 545.053 372.779 656.258 459.668 706.469C546.557 756.68 657.661 726.883 707.827 639.915C757.992 552.947 728.222 441.742 641.333 391.531C554.444 341.32 443.339 371.117 393.174 458.085Z" stroke="#3C1053" stroke-width="7" stroke-linecap="round" stroke-dasharray="235 829"/>
<path opacity="0.73" d="M395.617 513.21C375.869 598.827 429.203 684.257 514.743 704.024C600.282 723.79 685.635 670.407 705.383 584.79C725.131 499.173 671.797 413.743 586.258 393.977C500.718 374.21 415.366 427.593 395.617 513.21Z" stroke="#3C1053" stroke-width="7" stroke-linecap="round" stroke-dasharray="176 726"/>
<path opacity="0.77" d="M414.583 558.513C419.832 633.646 484.939 690.294 560.004 685.04C635.069 679.787 691.666 614.62 686.417 539.487C681.168 464.354 616.061 407.706 540.996 412.96C465.931 418.214 409.334 483.38 414.583 558.513Z" stroke="#3C1053" stroke-width="7" stroke-linecap="round" stroke-dasharray="126 622"/>
<path opacity="0.82" d="M444.501 589.726C466.973 648.321 532.648 677.588 591.189 655.096C649.731 632.603 678.971 566.869 656.499 508.274C634.027 449.679 568.353 420.412 509.811 442.904C451.269 465.397 422.029 531.131 444.501 589.726Z" stroke="#3C1053" stroke-width="7" stroke-linecap="round" stroke-dasharray="84 518"/>
<path opacity="0.86" d="M479.91 606.215C511.48 645.236 568.677 651.253 607.663 619.654C646.649 588.055 652.66 530.807 621.09 491.785C589.52 452.764 532.323 446.747 493.337 478.346C454.352 509.945 448.34 567.193 479.91 606.215Z" stroke="#3C1053" stroke-width="7" stroke-linecap="round" stroke-dasharray="50 415"/>
<path opacity="0.91" d="M512.405 605.529C543.597 626.587 585.939 618.349 606.978 587.129C628.017 555.909 619.786 513.529 588.595 492.471C557.403 471.413 515.062 479.651 494.022 510.871C472.983 542.091 481.214 584.471 512.405 605.529Z" stroke="#3C1053" stroke-width="7" stroke-linecap="round" stroke-dasharray="25 311"/>
<path opacity="0.95" d="M537.222 592.471C561.208 599.811 586.598 586.299 593.932 562.29C601.265 538.282 587.765 512.869 563.778 505.529C539.792 498.189 514.402 511.701 507.068 535.71C499.735 559.718 513.235 585.131 537.222 592.471Z" stroke="#3C1053" stroke-width="7" stroke-linecap="round" stroke-dasharray="8 207"/>
<path d="M550.5 571.729C563.041 571.729 573.208 561.553 573.208 549C573.208 536.447 563.041 526.271 550.5 526.271C537.959 526.271 527.792 536.447 527.792 549C527.792 561.553 537.959 571.729 550.5 571.729Z" stroke="#3C1053" stroke-width="7" stroke-linecap="round"/>
</g>
<defs>
<clipPath id="clip0_8_10">
<rect width="550" height="1102" fill="white" transform="translate(0 -2)"/>
</clipPath>
</defs>
</svg>
