<svg width="184" height="187" viewBox="0 0 184 187" fill="none" xmlns="http://www.w3.org/2000/svg">
<path d="M171.913 76.5134C173.999 70.2177 174.72 63.5484 174.029 56.9509C173.338 50.3534 171.251 43.9798 167.906 38.2557C157.731 20.5032 137.281 11.3716 117.309 15.6625C111.779 9.49691 104.728 4.89827 96.8642 2.32848C89.0002 -0.241305 80.6 -0.691773 72.5072 1.02232C64.4145 2.73641 56.9142 6.55472 50.7596 12.0938C44.6049 17.6328 40.0127 24.6976 37.444 32.5786C30.9592 33.9114 24.8329 36.6164 19.4746 40.5125C14.1163 44.4087 9.6494 49.4064 6.3724 55.1717C-3.91291 72.896 -1.57769 95.2528 12.1461 110.459C10.0527 116.751 9.32405 123.419 10.0089 130.017C10.6937 136.615 12.7763 142.99 16.1172 148.715C26.3048 166.474 46.7676 175.605 66.7503 171.309C71.1437 176.268 76.5421 180.23 82.5848 182.931C88.6276 185.633 95.1758 187.011 101.792 186.974C122.263 186.992 140.399 173.746 146.652 154.207C153.136 152.872 159.261 150.166 164.619 146.27C169.977 142.374 174.444 137.378 177.723 131.614C187.884 113.922 185.539 91.6859 171.913 76.5134ZM101.792 174.737C93.6211 174.75 85.7063 171.88 79.4355 166.629L80.5388 166.002L117.677 144.515C118.601 143.971 119.368 143.196 119.904 142.266C120.439 141.335 120.723 140.281 120.729 139.207V86.7228L136.43 95.8263C136.587 95.9063 136.696 96.0568 136.724 96.2319V139.723C136.684 159.044 121.068 174.697 101.792 174.737ZM26.7073 142.598C22.6095 135.506 21.1382 127.192 22.5522 119.12L23.6547 119.783L60.8299 141.271C61.7497 141.812 62.7969 142.097 63.8634 142.097C64.9299 142.097 65.9771 141.812 66.8969 141.271L112.308 115.029V133.199C112.304 133.293 112.279 133.385 112.234 133.468C112.19 133.551 112.127 133.623 112.051 133.678L74.4351 155.424C57.7192 165.077 36.363 159.337 26.7073 142.598ZM16.9258 61.5116C21.0521 54.3736 27.5649 48.9292 35.3114 46.1423V90.3704C35.2974 91.439 35.5698 92.4918 36.1002 93.4189C36.6305 94.346 37.3994 95.1135 38.3266 95.6412L83.5173 121.773L67.8162 130.877C67.7313 130.922 67.6366 130.945 67.5405 130.945C67.4444 130.945 67.3498 130.922 67.2649 130.877L29.7224 109.169C13.0395 99.4761 7.31827 78.0861 16.9258 61.3279V61.5116ZM145.917 91.5505L100.578 65.1606L116.243 56.0938C116.328 56.0486 116.423 56.025 116.519 56.025C116.616 56.025 116.71 56.0486 116.795 56.0938L154.338 77.8397C160.078 81.1596 164.758 86.0479 167.83 91.9337C170.903 97.8195 172.242 104.46 171.69 111.08C171.139 117.7 168.72 124.026 164.717 129.319C160.713 134.613 155.289 138.656 149.079 140.976V96.747C149.047 95.6804 148.738 94.6405 148.184 93.7295C147.629 92.8185 146.848 92.0676 145.917 91.5505ZM161.544 67.9992L160.441 67.3349L123.34 45.6633C122.414 45.119 121.361 44.8321 120.288 44.8321C119.215 44.8321 118.161 45.119 117.236 45.6633L71.8606 71.9061V53.7358C71.8509 53.6435 71.8663 53.5502 71.9052 53.4659C71.944 53.3815 72.0048 53.3093 72.0812 53.2567L109.624 31.5476C115.378 28.2251 121.956 26.6135 128.59 26.9011C135.224 27.1887 141.64 29.3638 147.086 33.1719C152.532 36.98 156.784 42.2637 159.344 48.4051C161.904 54.5464 162.667 61.2915 161.543 67.8515V67.9992H161.544ZM63.2938 100.212L47.5927 91.1449C47.5142 91.0973 47.4472 91.033 47.3962 90.9566C47.3453 90.8801 47.3118 90.7934 47.298 90.7025V47.3224C47.3067 40.6676 49.2053 34.1528 52.7717 28.5397C56.3382 22.9265 61.4251 18.4471 67.4378 15.625C73.4505 12.803 80.1404 11.7549 86.7254 12.6035C93.3104 13.452 99.5183 16.1621 104.623 20.4168L103.52 21.0435L66.3823 42.5308C65.4581 43.0742 64.6908 43.8492 64.1557 44.7797C63.6207 45.7103 63.3363 46.7643 63.3305 47.8383L63.2938 100.212V100.212ZM71.8239 81.7827L92.0481 70.0993L112.308 81.7834V105.15L92.1214 116.834L71.8613 105.15L71.8239 81.7827Z" fill="white"/>
</svg>
