<svg width="287" height="55" viewBox="0 0 287 55" fill="none" xmlns="http://www.w3.org/2000/svg">
<path d="M105.528 42V17.04H100.92V42H105.528ZM117.72 14.736V10.128H89.256V14.736H117.72ZM127.439 27.216H147.935V22.608H127.439V17.04H122.831V42H151.055V37.44H127.439V27.216ZM122.831 10.128V14.736H151.055V10.128H122.831ZM170.584 37.44C165.112 37.44 160.552 33.552 159.448 28.368C159.304 27.6 159.208 26.832 159.208 26.016C159.208 25.248 159.304 24.48 159.448 23.76C160.456 18.576 165.112 14.64 170.584 14.64C175.336 14.64 179.368 17.472 181.096 21.552H185.992C184.072 14.88 177.88 10.032 170.584 10.032C162.52 10.032 155.848 15.984 154.744 23.76C154.648 24.528 154.6 25.248 154.6 26.016C154.6 26.832 154.648 27.6 154.792 28.368C155.896 36.096 162.568 42 170.584 42C177.736 42 183.736 37.392 185.848 30.96H180.856C179.032 34.8 175.144 37.44 170.584 37.44ZM213.881 10.224V22.704H195.161V10.224H190.553V42H195.161V27.312H213.881V42H218.441V10.224H213.881ZM223.037 42H227.645V24.432L223.037 19.824V42ZM243.773 10.128V30.768L223.037 10.08V16.56L227.645 21.168L243.773 37.296L248.333 41.856V10.128H243.773ZM268.412 14.688C274.652 14.688 279.74 19.824 279.74 26.064C279.74 32.352 274.652 37.44 268.412 37.44C262.124 37.44 257.036 32.352 257.036 26.064C257.036 19.824 262.124 14.688 268.412 14.688ZM252.428 26.064C252.428 34.896 259.58 42 268.412 42C277.196 42 284.348 34.896 284.348 26.064C284.348 17.232 277.196 10.128 268.412 10.128C259.58 10.128 252.428 17.232 252.428 26.064Z" fill="#FDD835"/>
<path d="M21.9375 16.4531L32.9062 10.9688L43.875 16.4531L32.9062 21.9375L21.9375 16.4531Z" fill="#F2DE5F"/>
<path d="M21.9375 16.4531L32.9062 21.9375V32.9062L21.9375 27.4219V16.4531Z" fill="#FFFF90"/>
<path d="M32.9062 21.9375L43.875 16.4531V27.4219L32.9062 32.9062V21.9375Z" fill="#BDAD2D"/>
<path d="M32.9062 21.9375L43.875 16.4531L54.8437 21.9375L43.875 27.4219L32.9062 21.9375Z" fill="#F2DE5F"/>
<path d="M32.9062 21.9375L43.875 27.4219V38.3906L32.9062 32.9062V21.9375Z" fill="#FFFF90"/>
<path d="M43.875 27.4219L54.8437 21.9375V32.9062L43.875 38.3906V27.4219Z" fill="#BDAD2D"/>
<path d="M21.9375 27.4219L32.9062 21.9375L43.875 27.4219L32.9062 32.9062L21.9375 27.4219Z" fill="#F2DE5F"/>
<path d="M21.9375 27.4219L32.9062 32.9062V43.875L21.9375 38.3906V27.4219Z" fill="#FFFF90"/>
<path d="M32.9062 32.9062L43.875 27.4219V38.3906L32.9062 43.875V32.9062Z" fill="#BDAD2D"/>
<path d="M10.9688 21.9375L21.9375 16.4531L32.9062 21.9375L21.9375 27.4219L10.9688 21.9375Z" fill="#F2DE5F"/>
<path d="M10.9688 21.9375L21.9375 27.4219V38.3906L10.9688 32.9062V21.9375Z" fill="#FFFF90"/>
<path d="M21.9375 27.4219L32.9062 21.9375V32.9062L21.9375 38.3906V27.4219Z" fill="#BDAD2D"/>
<path d="M21.9375 27.4219L32.9062 21.9375L43.875 27.4219L32.9062 32.9062L21.9375 27.4219Z" fill="#F2DE5F"/>
<path d="M21.9375 27.4219L32.9062 32.9062V43.875L21.9375 38.3906V27.4219Z" fill="#FFFF90"/>
<path d="M32.9062 32.9062L43.875 27.4219V38.3906L32.9062 43.875V32.9062Z" fill="#BDAD2D"/>
<path d="M10.9688 32.9062L21.9375 27.4219L32.9062 32.9062L21.9375 38.3906L10.9688 32.9062Z" fill="#F2DE5F"/>
<path d="M10.9688 32.9062L21.9375 38.3906V49.3594L10.9688 43.875V32.9062Z" fill="#FFFF90"/>
<path d="M21.9375 38.3906L32.9062 32.9062V43.875L21.9375 49.3594V38.3906Z" fill="#BDAD2D"/>
<path d="M0 27.4219L10.9687 21.9375L21.9375 27.4219L10.9687 32.9062L0 27.4219Z" fill="#F2DE5F"/>
<path d="M0 27.4219L10.9687 32.9062V43.875L0 38.3906V27.4219Z" fill="#FFFF90"/>
<path d="M10.9688 32.9062L21.9375 27.4219V38.3906L10.9688 43.875V32.9062Z" fill="#BDAD2D"/>
<path d="M10.9688 32.9062L21.9375 27.4219L32.9062 32.9062L21.9375 38.3906L10.9688 32.9062Z" fill="#F2DE5F"/>
<path d="M10.9688 32.9062L21.9375 38.3906V49.3594L10.9688 43.875V32.9062Z" fill="#FFFF90"/>
<path d="M21.9375 38.3906L32.9062 32.9062V43.875L21.9375 49.3594V38.3906Z" fill="#BDAD2D"/>
<path d="M43.875 27.4219L54.8437 21.9375L65.8125 27.4219L54.8437 32.9062L43.875 27.4219Z" fill="#F2DE5F"/>
<path d="M43.875 27.4219L54.8437 32.9062V43.875L43.875 38.3906V27.4219Z" fill="#FFFF90"/>
<path d="M54.8438 32.9062L65.8125 27.4219V38.3906L54.8438 43.875V32.9062Z" fill="#BDAD2D"/>
<path d="M32.9062 32.9062L43.875 27.4219L54.8437 32.9062L43.875 38.3906L32.9062 32.9062Z" fill="#F2DE5F"/>
<path d="M32.9062 32.9062L43.875 38.3906V49.3594L32.9062 43.875V32.9062Z" fill="#FFFF90"/>
<path d="M43.875 38.3906L54.8437 32.9062V43.875L43.875 49.3594V38.3906Z" fill="#BDAD2D"/>
<path d="M21.9375 38.3906L32.9062 32.9062L43.875 38.3906L32.9062 43.875L21.9375 38.3906Z" fill="#F2DE5F"/>
<path d="M21.9375 38.3906L32.9062 43.875V54.8437L21.9375 49.3594V38.3906Z" fill="#FFFF90"/>
<path d="M32.9062 43.875L43.875 38.3906V49.3594L32.9062 54.8437V43.875Z" fill="#BDAD2D"/>
<path d="M21.9375 5.48437L32.9062 0L43.875 5.48437L32.9062 10.9687L21.9375 5.48437Z" fill="#F2DE5F"/>
<path d="M21.9375 5.48438L32.9062 10.9687V21.9375L21.9375 16.4531V5.48438Z" fill="#FFFF90"/>
<path d="M32.9062 10.9687L43.875 5.48438V16.4531L32.9062 21.9375V10.9687Z" fill="#BDAD2D"/>
<path d="M10.9688 10.9687L21.9375 5.48438L32.9062 10.9687L21.9375 16.4531L10.9688 10.9687Z" fill="#F2DE5F"/>
<path d="M10.9688 10.9688L21.9375 16.4531V27.4219L10.9688 21.9375V10.9688Z" fill="#FFFF90"/>
<path d="M21.9375 16.4531L32.9062 10.9688V21.9375L21.9375 27.4219V16.4531Z" fill="#BDAD2D"/>
<path d="M0 16.4531L10.9687 10.9688L21.9375 16.4531L10.9687 21.9375L0 16.4531Z" fill="#F2DE5F"/>
<path d="M0 16.4531L10.9687 21.9375V32.9062L0 27.4219V16.4531Z" fill="#FFFF90"/>
<path d="M10.9688 21.9375L21.9375 16.4531V27.4219L10.9688 32.9062V21.9375Z" fill="#BDAD2D"/>
<path d="M10.9688 21.9375L21.9375 16.4531L32.9062 21.9375L21.9375 27.4219L10.9688 21.9375Z" fill="#F2DE5F"/>
<path d="M10.9688 21.9375L21.9375 27.4219V38.3906L10.9688 32.9062V21.9375Z" fill="#FFFF90"/>
<path d="M21.9375 27.4219L32.9062 21.9375V32.9062L21.9375 38.3906V27.4219Z" fill="#BDAD2D"/>
<path d="M32.9062 10.9687L43.875 5.48438L54.8437 10.9687L43.875 16.4531L32.9062 10.9687Z" fill="#F2DE5F"/>
<path d="M32.9062 10.9688L43.875 16.4531V27.4219L32.9062 21.9375V10.9688Z" fill="#FFFF90"/>
<path d="M43.875 16.4531L54.8437 10.9688V21.9375L43.875 27.4219V16.4531Z" fill="#BDAD2D"/>
<path d="M43.875 16.4531L54.8437 10.9688L65.8125 16.4531L54.8437 21.9375L43.875 16.4531Z" fill="#F2DE5F"/>
<path d="M43.875 16.4531L54.8437 21.9375V32.9062L43.875 27.4219V16.4531Z" fill="#FFFF90"/>
<path d="M54.8438 21.9375L65.8125 16.4531V27.4219L54.8438 32.9062V21.9375Z" fill="#BDAD2D"/>
<path d="M32.9062 21.9375L43.875 16.4531L54.8437 21.9375L43.875 27.4219L32.9062 21.9375Z" fill="#F2DE5F"/>
<path d="M32.9062 21.9375L43.875 27.4219V38.3906L32.9062 32.9062V21.9375Z" fill="#FFFF90"/>
<path d="M43.875 27.4219L54.8437 21.9375V32.9062L43.875 38.3906V27.4219Z" fill="#BDAD2D"/>
<path d="M21.9375 27.4219L32.9062 21.9375L43.875 27.4219L32.9062 32.9062L21.9375 27.4219Z" fill="#F2DE5F"/>
<path d="M21.9375 27.4219L32.9062 32.9062V43.875L21.9375 38.3906V27.4219Z" fill="#FFFF90"/>
<path d="M32.9062 32.9062L43.875 27.4219V38.3906L32.9062 43.875V32.9062Z" fill="#BDAD2D"/>
</svg>
